<svg id="Layer_1" enable-background="new 0 0 512 512" height="512" viewBox="0 0 512 512" width="512" xmlns="http://www.w3.org/2000/svg"><g><g><path d="m502.587 379.941c-2.23 55.34-5.64 90.44-5.64 90.44s-12.11.65-33.74 1.51c-73.49 2.92-256.879 8.23-448.209-1.51-2.83-30.87-4.72-61.47-5.89-91.01-2.7-67.74-1.65-129.95.26-177.34 2.22-55.35 5.63-90.45 5.63-90.45s39.5-2.12 103.19-3.75c8.83-41.33 18.99-68.39 18.99-68.39s46.71-3.17 120.26-3.44c73.55.27 120.26 3.44 120.26 3.44s10.15 27.02 18.96 68.29c21.78.58 43.92 1.33 66.25 2.28 11.31.47 22.66.99 34.04 1.57 2.84 30.88 4.73 61.47 5.9 91.02 2.689 67.74 1.648 129.95-.261 177.34z" fill="#f4f1e1"/><path d="m502.587 379.941c-2.23 55.34-5.64 90.44-5.64 90.44s-12.11.65-33.74 1.51c9.31-169.82 1.66-326.82-.3-361.88 11.31.47 22.66.99 34.04 1.57 2.84 30.88 4.73 61.47 5.9 91.02 2.69 67.74 1.649 129.95-.26 177.34z" fill="#f4e5cb"/><path d="m502.587 379.941-.11.24c-11.96.59-23.89 1.13-35.76 1.62-47.67 1.95-94.46 3.06-138.849 3.59l-143.97-.13c-104.38-1.4-174.42-5.08-174.42-5.08l-.37-.81c-2.7-67.74-1.65-129.95.26-177.34l.11-.25s70.04-3.68 174.42-5.07l143.97-.14c44.3.53 91 1.64 138.579 3.58 11.96.49 23.98 1.03 36.03 1.63l.37.82c2.69 67.74 1.649 129.95-.26 177.34z" fill="#ff7878"/><path d="m374.647 290.981c0 65.54-53.13 118.67-118.67 118.67-5.43 0-10.77-.36-16-1.08-57.97-7.8-102.67-57.48-102.67-117.59s44.7-109.79 102.67-117.59c5.23-.72 10.57-1.08 16-1.08 65.54 0 118.67 53.13 118.67 118.67z" fill="#8389aa"/><path d="m374.647 290.981c0 65.54-53.13 118.67-118.67 118.67-5.43 0-10.77-.36-16-1.08 57.97-7.8 102.67-57.48 102.67-117.59s-44.7-109.79-102.67-117.59c5.23-.72 10.57-1.08 16-1.08 65.54 0 118.67 53.13 118.67 118.67z" fill="#646d91"/><path d="m322.777 290.981c0 36.9-29.91 66.81-66.8 66.81-5.16 0-10.18-.58-15-1.69-29.68-6.81-51.81-33.38-51.81-65.12s22.13-58.31 51.81-65.12c4.82-1.11 9.84-1.69 15-1.69 8.02 0 15.72 1.42 22.85 4.01l28.52 20.1c9.64 11.57 15.43 26.46 15.43 42.7z" fill="#99f8ff"/><path d="m307.347 248.281c9.64 11.57 15.43 26.46 15.43 42.7 0 36.9-29.91 66.81-66.8 66.81-5.16 0-10.18-.58-15-1.69 29.67-6.81 51.8-33.38 51.8-65.12s-22.13-58.31-51.8-65.12c4.82-1.11 9.84-1.69 15-1.69 8.02 0 15.72 1.42 22.85 4.01z" fill="#92d3f7"/><ellipse cx="294.426" cy="236.382" fill="#fff" rx="17.631" ry="17.609"/><path d="m347.837 114.851c-11.55-.48-23.35-.83-35.12-1.06-71.64-1.46-141.69 1.06-141.69 1.06 4.45-24.41 10-42 10-42s55.42-2.52 122.99-1.06c11.01.24 22.35.58 33.82 1.06 0 0 5.55 17.59 10 42z" fill="#c7cde0"/><path d="m347.837 114.851c-11.55-.48-23.35-.83-35.12-1.06-2.77-18.7-6.28-33.23-8.7-42 11.01.24 22.35.58 33.82 1.06 0 0 5.55 17.59 10 42z" fill="#b1accc"/><path d="m502.587 379.941-.11.24c-11.96.59-23.89 1.13-35.76 1.62 1.69-69.43 1-132.87-.27-181.65 11.96.49 23.98 1.03 36.03 1.63l.37.82c2.69 67.74 1.649 129.95-.26 177.34z" fill="#f4536f"/></g><g><path d="m504.494 110.901c-.342-3.715-3.362-6.615-7.088-6.804-30.404-1.547-62.207-2.791-94.617-3.7-8.501-38.062-17.618-62.52-18.02-63.591-1.034-2.753-3.581-4.647-6.515-4.846-.184-.012-18.727-1.257-50.108-2.245-4.186-.148-7.603 3.121-7.734 7.26-.131 4.14 3.121 7.602 7.261 7.732 21.758.685 37.256 1.492 44.656 1.919 3.175 9.274 10.515 32.099 17.048 62.675.723 3.387 3.673 5.838 7.135 5.93 32.01.856 63.472 2.04 93.622 3.522 2.225 25.387 3.811 50.592 4.894 75.161-52.072-2.486-107.414-4.104-164.671-4.811-20.867-15.265-46.578-24.286-74.357-24.286-27.108 0-52.889 8.442-74.644 24.429-81.88 1.127-142.872 3.677-164.117 4.659 1.608-36.79 3.658-63.522 4.636-75.152 13.7-.657 48.301-2.19 96.505-3.425 3.467-.089 6.42-2.542 7.144-5.932 6.538-30.622 13.889-53.484 17.068-62.769 13.814-.793 55.874-2.909 114.842-3.126 10.026.037 20.133.131 30.04.279 4.17.076 7.551-3.245 7.613-7.387.063-4.142-3.246-7.55-7.388-7.612-9.964-.149-20.128-.244-30.265-.281-72.959.269-120.296 3.426-120.766 3.458-2.934.199-5.481 2.094-6.515 4.846-.402 1.073-9.533 25.568-18.04 63.681-59.676 1.594-97.156 3.591-97.539 3.612-3.703.199-6.705 3.074-7.063 6.765-.171 1.752-16.811 177.271-.005 360.218.342 3.715 3.362 6.615 7.089 6.804 82.592 4.204 163.696 5.615 235.38 5.615 55.025 0 104.501-.832 144.831-1.871 4.141-.107 7.413-3.55 7.305-7.691-.106-4.141-3.564-7.396-7.692-7.304-91.23 2.351-229.349 3.638-372.555-3.404-2.225-25.388-3.811-50.594-4.894-75.164 21.004.973 82.204 3.541 164.48 4.673 20.902 15.351 46.685 24.427 74.55 24.427 27.779 0 53.49-9.021 74.357-24.286 57.148-.706 112.4-2.319 164.404-4.798-1.608 36.788-3.658 63.519-4.636 75.149-9.439.453-28.792 1.322-55.585 2.219-4.141.138-7.385 3.607-7.247 7.747.136 4.054 3.467 7.249 7.493 7.249.085 0 .17-.001.256-.004 38.849-1.299 62.154-2.544 62.386-2.556 3.703-.199 6.705-3.074 7.063-6.765.169-1.753 16.808-177.272.003-360.219zm-248.494 291.263c-61.311 0-111.193-49.872-111.193-111.174 0-4.142-3.358-7.5-7.501-7.5s-7.501 3.358-7.501 7.5c0 33.438 13.077 63.88 34.386 86.481-74.961-1.253-129.674-3.601-147.825-4.452-2.25-61.932-1.411-119.128.264-164.071 18.409-.861 72.937-3.191 147.515-4.439-13.157 14.009-23.12 30.968-28.764 49.28-1.219 3.959 1.001 8.156 4.961 9.376 3.952 1.216 8.158-1 9.377-4.959 6.716-21.793 20.384-41.414 38.558-55.397.129-.093.255-.189.377-.289.235-.179.471-.358.708-.536 19.344-14.503 42.388-22.168 66.639-22.168 61.311 0 111.193 49.872 111.193 111.174s-49.883 111.174-111.194 111.174zm239.37-29.13c-46.899 2.252-96.47 3.795-147.714 4.6 21.4-22.618 34.54-53.125 34.54-86.644 0-33.518-13.14-64.026-34.54-86.644 51.348.807 101.009 2.354 147.978 4.613 2.249 61.934 1.41 119.131-.264 164.075z"/><path d="m437.243 241.944c-4.119.445-7.097 4.145-6.653 8.263.044.403 4.314 40.855-.005 83.503-.417 4.121 2.586 7.8 6.708 8.218.257.026.512.039.765.039 3.803 0 7.063-2.881 7.455-6.745 4.476-44.195.18-84.914-.005-86.626-.446-4.119-4.142-7.107-8.265-6.652z"/><path d="m74.756 241.944c-4.113-.443-7.818 2.532-8.263 6.65-.185 1.711-4.481 42.431-.005 86.627.392 3.864 3.651 6.745 7.455 6.745.252 0 .508-.013.765-.039 4.122-.417 7.125-4.097 6.707-8.218-4.312-42.576-.049-83.1-.005-83.504.443-4.118-2.535-7.816-6.654-8.261z"/><path d="m304.593 113.626c-.083 4.141 3.208 7.566 7.35 7.648 12.558.25 24.544.611 35.626 1.072.104.004.208.006.312.006 2.166 0 4.231-.936 5.659-2.577 1.497-1.719 2.129-4.026 1.721-6.268-4.481-24.595-9.996-42.179-10.229-42.916-.951-3.011-3.686-5.104-6.842-5.236-81.264-3.38-156.741-.033-157.495.001-3.144.143-5.865 2.233-6.813 5.235-.233.736-5.746 18.32-10.229 42.915-.407 2.234.221 4.533 1.707 6.252 1.486 1.717 3.656 2.668 5.942 2.588.469-.016 47.426-1.668 102.942-1.496h.025c4.131 0 7.487-3.342 7.5-7.476.014-4.142-3.334-7.511-7.477-7.525-41.103-.131-77.554.736-94.103 1.211 2.456-11.893 4.986-21.465 6.527-26.932 18.046-.666 79.296-2.525 145.481 0 1.539 5.456 4.062 15 6.513 26.865-8.439-.295-17.305-.537-26.469-.719-4.117-.055-7.565 3.211-7.648 7.352z"/><path d="m319.594 236.388c0-13.846-11.276-25.11-25.136-25.11-7.306 0-13.893 3.13-18.49 8.117-6.474-1.803-13.167-2.714-19.969-2.714-40.981 0-74.322 33.335-74.322 74.309s33.341 74.309 74.322 74.309 74.321-33.335 74.321-74.309c0-15.386-4.805-30.408-13.63-42.894 1.854-3.497 2.904-7.482 2.904-11.708zm-25.136-10.109c5.587 0 10.133 4.535 10.133 10.109s-4.546 10.11-10.133 10.11-10.133-4.535-10.133-10.11 4.546-10.109 10.133-10.109zm-38.458 124.02c-32.709 0-59.319-26.605-59.319-59.308s26.61-59.308 59.319-59.308c4.589 0 9.114.519 13.52 1.546-.131 1.036-.198 2.09-.198 3.161 0 13.846 11.276 25.11 25.136 25.11 4.084 0 7.943-.978 11.356-2.712 6.166 9.541 9.503 20.745 9.503 32.204.001 32.701-26.609 59.307-59.317 59.307z"/><path d="m64.743 154.064c0 4.143 3.359 7.501 7.503 7.501s7.503-3.359 7.503-7.501c0-4.143-3.359-7.501-7.503-7.501s-7.503 3.358-7.503 7.501z"/><ellipse cx="108.252" cy="154.066" rx="7.501" ry="7.503" transform="matrix(.006 -1 1 .006 -46.479 261.365)"/><path d="m410.816 154.064c0-4.143-3.359-7.501-7.503-7.501s-7.503 3.359-7.503 7.501c0 4.143 3.359 7.501 7.503 7.501 4.144.001 7.503-3.358 7.503-7.501z"/><ellipse cx="439.32" cy="154.066" rx="7.503" ry="7.501" transform="matrix(1 -.006 .006 1 -.92 2.649)"/><path d="m64.743 428.073c0 4.143 3.359 7.501 7.503 7.501s7.503-3.359 7.503-7.501c0-4.143-3.359-7.501-7.503-7.501s-7.503 3.358-7.503 7.501z"/><path d="m100.749 428.075c0 4.143 3.359 7.501 7.503 7.501s7.503-3.359 7.503-7.501c0-4.143-3.359-7.501-7.503-7.501s-7.503 3.358-7.503 7.501z"/><path d="m403.313 420.572c-4.144 0-7.503 3.358-7.503 7.501s3.359 7.501 7.503 7.501 7.503-3.359 7.503-7.501c0-4.143-3.359-7.501-7.503-7.501z"/><path d="m446.822 428.075c0-4.143-3.359-7.501-7.503-7.501s-7.503 3.358-7.503 7.501 3.359 7.501 7.503 7.501 7.503-3.358 7.503-7.501z"/></g></g></svg>