<svg id="Layer_1" enable-background="new 0 0 512.032 512.032" height="512" viewBox="0 0 512.032 512.032" width="512" xmlns="http://www.w3.org/2000/svg"><g><g><path d="m483.516 496.061s-14.739 1.278-40.683 2.848c-74.032 4.469-239.259 11.252-413.327-2.848-5.638-188.501 0-400.504 0-400.504h454.011c-.001 0 5.637 212.002-.001 400.504z" fill="#99f8ff"/><path d="m483.511 98.186s5.65 210.639 0 397.929c0 0-14.77 1.27-40.77 2.83 4.41-164.839 1.29-341.429 0-400.759z" fill="#92d3f7"/><path d="m501.801 93.776s-14.09.59-39.14 1.35c-77.23 2.32-258.619 6.15-452.429-1.35-6.1-38.52 0-81.83 0-81.83 193.689-7.5 374.979-3.68 452.289-1.36 25.14.76 39.28 1.36 39.28 1.36s6.11 43.31 0 81.83z" fill="#8389aa"/><path d="m501.801 93.776s-14.09.59-39.14 1.35c3.53-34.05 1.18-69.56-.14-84.54 25.14.76 39.28 1.36 39.28 1.36s6.11 43.31 0 81.83z" fill="#646d91"/></g><g><path d="m485.161 178.866c-.034 0-.069 0-.104.001-4.143.056-7.454 3.459-7.397 7.601 1.066 78.491 1.661 194.032-1.456 302.705-38.049 2.882-233.275 16.019-440.376-.001-.371-12.934-.701-26.4-.983-40.129-.086-4.142-3.489-7.454-7.653-7.344-4.141.085-7.429 3.511-7.344 7.652.333 16.173.731 31.984 1.185 46.994.115 3.82 3.086 6.943 6.896 7.249 78.22 6.284 154.963 8.378 222.556 8.378 134.162-.001 232.2-8.255 233.663-8.381 3.792-.327 6.737-3.442 6.853-7.246 3.347-110.877 2.749-229.822 1.658-310.081-.057-4.107-3.403-7.398-7.498-7.398z"/><path d="m509.227 10.899c-.505-3.582-3.495-6.294-7.109-6.446-2.353-.1-238.147-9.833-492.177-.001-3.625.14-6.63 2.854-7.136 6.447-.256 1.813-6.194 44.88.019 84.054.561 3.535 3.541 6.181 7.117 6.319 3.639.141 7.317.276 10.997.411-.598 24.365-3.821 166.061-1.705 312.417.059 4.104 3.405 7.392 7.497 7.392.037 0 .074 0 .111-.001 4.142-.06 7.451-3.466 7.391-7.607-2.108-145.797 1.092-286.972 1.699-311.671 10.401.352 20.897.68 31.421.977 4.14.094 7.592-3.145 7.708-7.285s-3.145-7.592-7.286-7.709c-17.171-.484-34.294-1.046-50.992-1.673-3.328-26.836-1.125-55.118.15-67.326 227.681-8.531 439.172-1.463 478.167-.005 1.274 12.205 3.479 40.494.149 67.337-33.535 1.258-197.857 6.801-389.418 2.619-4.136-.062-7.571 3.193-7.662 7.334-.09 4.142 3.193 7.572 7.334 7.662 51.045 1.113 100.138 1.538 145.38 1.538 102.615 0 185.28-2.186 225.219-3.48.182 7.369.596 25.076 1.028 49.953.071 4.098 3.415 7.37 7.496 7.37.044 0 .089 0 .133-.001 4.142-.072 7.44-3.487 7.369-7.629-.435-25.074-.853-42.89-1.034-50.204 6.954-.25 10.77-.408 11.024-.419 3.565-.15 6.531-2.793 7.09-6.318 6.214-39.175.276-82.242.02-84.055z"/><path d="m72.032 45.362h-20.987c-4.142 0-7.5 3.357-7.5 7.5s3.358 7.5 7.5 7.5h20.987c4.142 0 7.5-3.357 7.5-7.5s-3.358-7.5-7.5-7.5z"/><path d="m132.032 60.362c4.142 0 7.5-3.357 7.5-7.5s-3.358-7.5-7.5-7.5h-20.987c-4.142 0-7.5 3.357-7.5 7.5s3.358 7.5 7.5 7.5z"/><path d="m192.032 60.362c4.142 0 7.5-3.357 7.5-7.5s-3.358-7.5-7.5-7.5h-20.987c-4.142 0-7.5 3.357-7.5 7.5s3.358 7.5 7.5 7.5z"/><path d="m114.078 302.736c0-4.143-3.358-7.5-7.5-7.5s-7.5 3.357-7.5 7.5c0 86.903 70.7 157.604 157.603 157.604s157.604-70.7 157.604-157.604c0-86.902-70.701-157.603-157.604-157.603-36.152 0-70.157 11.907-98.338 34.436-27.351 21.864-46.868 52.556-54.958 86.423-.962 4.028 1.523 8.074 5.552 9.037 4.028.961 8.075-1.523 9.038-5.553 2.716-11.372 6.861-22.347 12.262-32.668 8.143 2.372 24.172 6.596 45.947 10.232-3.551 17.564-5.429 36.363-5.429 55.696 0 19.157 1.844 37.791 5.332 55.217-21.905 3.662-37.987 7.918-46.054 10.275-10.188-19.623-15.955-41.896-15.955-65.492zm213.529 0c0 18.452-1.787 36.338-5.166 52.974-17.038-2.309-36.708-4.062-58.26-4.399v-97.645c21.512-.336 41.148-2.083 58.164-4.386 3.443 16.771 5.262 34.826 5.262 53.456zm-63.426 141.771v-78.192c20.103.332 38.611 1.964 54.771 4.12-3.499 12.743-8.008 24.529-13.462 34.968-11.578 22.156-26.025 35.739-41.309 39.104zm0-205.845v-77.696c15.284 3.365 29.733 16.947 41.309 39.105 5.388 10.312 9.858 21.934 13.339 34.498-16.119 2.143-34.581 3.763-54.648 4.093zm-15-77.696v77.696c-20.05-.332-38.515-1.956-54.644-4.103 3.481-12.561 7.95-24.18 13.336-34.488 11.576-22.157 26.024-35.74 41.308-39.105zm0 283.54c-15.284-3.365-29.731-16.948-41.308-39.104-5.455-10.441-9.965-22.231-13.464-34.977 16.148-2.151 34.653-3.779 54.772-4.11zm51.866-6.241c6.452-7.062 12.415-15.73 17.737-25.917 6.184-11.835 11.227-25.233 15.073-39.687 18.624 3.084 33.005 6.61 41.568 8.95-17.578 26.375-43.698 46.586-74.378 56.654zm82.283-70.037c-8.067-2.357-24.149-6.613-46.055-10.275 3.488-17.427 5.333-36.06 5.333-55.217 0-19.333-1.878-38.132-5.429-55.696 21.755-3.632 37.774-7.852 45.925-10.225 10.329 19.728 16.182 42.152 16.182 65.921-.001 23.596-5.768 45.869-15.956 65.492zm-8.179-144.782c-8.606 2.348-22.915 5.845-41.416 8.902-3.83-14.277-8.833-27.514-14.95-39.223-5.322-10.186-11.285-18.855-17.737-25.917 30.518 10.016 56.528 30.066 74.103 56.238zm-236.962-.013c8.102-12.09 18.048-22.977 29.52-32.148 13.581-10.857 28.659-18.986 44.73-24.213-6.5 7.086-12.505 15.801-17.861 26.052-6.116 11.706-11.118 24.939-14.948 39.211-18.506-3.059-32.831-6.556-41.441-8.902zm47.566 79.303c0-18.63 1.82-36.685 5.263-53.456 17.016 2.303 36.651 4.05 58.163 4.386v97.645c-21.552.337-41.222 2.09-58.26 4.399-3.379-16.636-5.166-34.522-5.166-52.974zm-6.253 69.914c3.846 14.458 8.891 27.86 15.076 39.698 5.322 10.186 11.285 18.855 17.737 25.916-30.682-10.069-56.803-30.281-74.38-56.658 8.556-2.343 22.93-5.871 41.567-8.956z"/></g></g></svg>