<svg id="Layer_1" enable-background="new 0 0 512 512" height="512" viewBox="0 0 512 512" width="512" xmlns="http://www.w3.org/2000/svg"><g><g><g fill="#c5ef7b"><path d="m221.053 180.364s-2.78.83-7.62 1.68c-15.94 2.81-54.15 5.93-88.52-19.17-37.08-27.08-44.22-68.4-45.59-81.84-.28-2.81-.31-4.4-.31-4.4s51.34-15.23 96.14 17.49 45.9 86.24 45.9 86.24z"/><path d="m377.793 92.734c-3.85 3.84-7.84 7.2-11.9 10.13-33.99 24.57-72.88 19.33-72.88 19.33s-6.58-48.73 29.46-84.75c13.23-13.23 28.18-20.72 41.8-24.89 23.46-7.2 42.98-4.57 42.98-4.57s6.57 48.73-29.46 84.75z"/></g><path d="m221.053 180.364s-2.78.83-7.62 1.68c-23.56-71.2-95.29-93.88-134.11-101.01-.28-2.81-.31-4.4-.31-4.4s51.34-15.23 96.14 17.49 45.9 86.24 45.9 86.24z" fill="#81e276"/><path d="m377.793 92.734c-3.85 3.84-7.84 7.2-11.9 10.13 22.52-58.96 9.5-81.7-1.62-90.31 23.46-7.2 42.98-4.57 42.98-4.57s6.57 48.73-29.46 84.75z" fill="#81e276"/><g><path d="m421.753 300.594s-6.94 90.22-36.38 195.87c0 0-12.4 1.61-32.17 3.4-24.35 2.19-59.88 4.64-97.21 4.64-67.63 0-129.38-8.04-129.38-8.04-27.59-97.15-36.38-195.87-36.38-195.87z" fill="#fab684"/><path d="m421.753 300.594s-6.94 90.22-36.38 195.87c0 0-12.4 1.61-32.17 3.4 24.66-98.87 34.57-173.94 37.47-199.27z" fill="#f79e60"/></g><ellipse cx="255.993" cy="402.116" fill="#f79e60" rx="62.3" ry="49.566"/><path d="m446.033 299.514s-13.95.78-39.83 1.63c-32.53 1.09-83.94 2.31-150.21 2.31-118.97 0-190.04-3.94-190.04-3.94-1.91-35.1 0-69.03 0-69.03s71.07-3.94 190.04-3.94c66.24 0 117.63 1.22 150.17 2.3 25.91.87 39.87 1.64 39.87 1.64s1.91 33.93 0 69.03z" fill="#f79e60"/><path d="m446.033 299.514s-13.95.78-39.83 1.63c1.34-28.59.34-61.8-.04-72.3 25.91.87 39.87 1.64 39.87 1.64s1.91 33.93 0 69.03z" fill="#d77d41"/></g><g><path d="m453.524 230.062c-.215-3.813-3.26-6.855-7.073-7.067-.696-.039-69.291-3.773-182.186-3.95 2.064-22.506 2.673-42.796 2.163-61.076 3.532-4.295 12.433-14.836 25.491-28.366.03.004.058.015.088.019.559.075 4.424.563 10.518.562 17.249 0 52.323-3.91 80.568-32.143 38.225-38.211 31.882-88.916 31.594-91.056-.452-3.347-3.084-5.978-6.431-6.43-1.208-.165-29.934-3.825-60.477 10.275-3.761 1.736-5.402 6.192-3.666 9.953s6.192 5.401 9.953 3.666c18.724-8.644 36.983-9.585 46.131-9.393.302 13.44-1.888 46.563-27.709 72.374-22.257 22.249-50.165 26.914-65.995 27.595 14.392-13.889 31.92-29.357 51.654-43.902 3.334-2.457 4.045-7.152 1.588-10.486s-7.153-4.045-10.487-1.588c-18.26 13.458-34.573 27.544-48.359 40.53 2.01-16.074 8.375-38.334 26.886-56.837 2.93-2.929 2.931-7.678.002-10.607s-7.677-2.929-10.606-.002c-29.641 29.63-32.482 66.768-32.13 82.953-7.989 8.12-14.655 15.37-19.809 21.186-8.842-106.409-57.87-134.016-60.441-135.386-3.653-1.948-8.223-.578-10.172 3.076-1.949 3.655-.591 8.184 3.064 10.133.171.095 17.268 9.814 32.018 40.287 18.415 38.043 22.743 86.028 21.668 128.514-8.235-3.058-16.055-6.436-23.412-9.986-1.993-16.541-10.673-57.303-48.379-84.839-47.257-34.513-100.454-19.289-102.695-18.624-3.238.961-5.434 3.967-5.365 7.344.048 2.337 1.711 57.626 48.97 92.139 24.825 18.131 51.289 22.535 71.145 22.535 17.941 0 30.486-3.597 31.55-3.912.104-.031.196-.081.298-.116 8.511 4.009 17.61 7.798 27.246 11.177-.397 7.061-.921 13.897-1.531 20.433-35.115.045-69.383.429-101.939 1.154-4.141.092-7.423 3.523-7.331 7.665.092 4.141 3.529 7.393 7.665 7.331 34.545-.769 71.014-1.159 108.395-1.159.006 0 .012.001.018.001.007 0 .014-.001.021-.001 96.76 0 162.385 2.649 182.824 3.6.4 10.511.957 31.979.021 54.717-20.415.95-86.064 3.601-182.875 3.601s-162.46-2.65-182.875-3.601c-.934-22.723-.377-44.205.022-54.719 7.294-.342 20.33-.899 38.388-1.472 4.14-.131 7.39-3.594 7.259-7.733-.131-4.14-3.577-7.42-7.733-7.259-29.158.924-45.358 1.814-45.518 1.823-3.813.211-6.858 3.254-7.073 7.067-.019.343-1.91 34.749 0 69.855.208 3.818 3.255 6.869 7.073 7.081.206.012 6.38.348 17.887.819 1.588 15.092 6.2 54.645 15.294 102.268.686 3.593 3.83 6.094 7.358 6.094.466 0 .94-.043 1.415-.134 4.069-.777 6.737-4.705 5.96-8.774-8.599-45.032-13.137-82.71-14.881-98.876 32.131 1.139 86.446 2.561 157.426 2.561 71.033 0 125.376-1.424 157.498-2.563-2.444 24.187-11.2 97.772-34.01 181.231-15.895 1.85-67.989 7.376-123.492 7.376-55.527 0-107.646-5.531-123.512-7.381-4.22-15.207-8.234-31.341-11.95-48.035-.9-4.042-4.905-6.598-8.951-5.69-4.043.899-6.591 4.907-5.691 8.95 4.172 18.741 8.717 36.798 13.508 53.669.819 2.883 3.275 5.002 6.247 5.389.622.081 63.007 8.099 130.348 8.099s129.726-8.018 130.348-8.099c2.985-.389 5.449-2.524 6.257-5.425 24.754-88.848 33.778-167.783 36.023-190.662 11.47-.47 17.625-.805 17.831-.817 3.818-.212 6.866-3.263 7.073-7.081 1.911-35.109.079-68.454 0-69.855zm-308.851-96.315c1.23 1.256 21.948 22.156 56.815 42.202-17.772 1.403-46.313-.261-72.154-19.133-32.6-23.807-40.415-60.052-42.26-74.291 14.142-2.573 51.06-6.148 83.657 17.658 26.348 19.242 36.503 46.603 40.404 63.913-34.515-19.534-55.316-40.409-55.744-40.843-2.897-2.959-7.646-3.011-10.605-.112-2.96 2.897-3.011 7.646-.113 10.606z"/><path d="m255.993 360.06c11.249 0 22.066 2.617 31.283 7.569 3.646 1.961 8.196.594 10.156-3.057 1.961-3.648.592-8.196-3.057-10.156-11.392-6.121-24.664-9.356-38.382-9.356-38.488 0-69.8 25.594-69.8 57.052s31.312 57.052 69.8 57.052 69.8-25.594 69.8-57.052c0-6.465-1.307-12.808-3.884-18.857-1.624-3.811-6.031-5.587-9.84-3.959-3.811 1.623-5.583 6.029-3.96 9.84 1.781 4.179 2.684 8.544 2.684 12.976 0 23.187-24.583 42.052-54.8 42.052s-54.8-18.865-54.8-42.052 24.583-42.052 54.8-42.052z"/></g></g></svg>