<?xml version="1.0" standalone="no"?>
<!DOCTYPE svg PUBLIC "-//W3C//DTD SVG 20010904//EN"
 "http://www.w3.org/TR/2001/REC-SVG-20010904/DTD/svg10.dtd">
<svg version="1.0" xmlns="http://www.w3.org/2000/svg"
 width="212.000000pt" height="212.000000pt" viewBox="0 0 212.000000 212.000000"
 preserveAspectRatio="xMidYMid meet">
<metadata>
Created by potrace 1.11, written by Peter Selinger 2001-2013
</metadata>
<g transform="translate(0.000000,212.000000) scale(0.100000,-0.100000)"
fill="#000000" stroke="none">
<path d="M569 1977 c-58 -17 -97 -45 -152 -110 -156 -183 -333 -565 -393 -847
-14 -62 -18 -127 -18 -240 0 -141 3 -162 28 -237 15 -48 47 -113 76 -156 131
-196 288 -261 630 -260 170 0 266 10 447 48 502 105 860 343 923 614 30 129
-16 292 -128 449 -234 330 -733 647 -1159 737 -62 14 -209 15 -254 2z m274
-52 c316 -66 743 -313 982 -566 177 -189 257 -353 249 -514 -2 -44 -13 -79
-40 -135 -129 -261 -562 -470 -1109 -535 -61 -7 -298 -8 -340 -2 -16 3 -50 8
-75 12 -70 10 -191 53 -235 83 -96 66 -188 221 -218 364 -16 73 -15 243 2 339
31 186 133 455 251 664 41 73 138 210 174 244 70 68 185 83 359 46z"/>
<path d="M837 1630 c-15 -12 -61 -73 -102 -135 -42 -63 -91 -130 -109 -148
-33 -34 -52 -40 -176 -53 -14 -1 -37 -5 -52 -8 -16 -3 -40 -8 -55 -11 -119
-22 -173 -38 -173 -50 0 -22 17 -27 58 -16 21 6 58 13 82 16 25 3 57 8 72 11
33 7 76 12 147 20 30 3 59 8 64 11 4 2 -12 -35 -37 -84 -124 -248 -195 -453
-203 -585 l-6 -97 30 -30 c27 -26 34 -29 66 -21 68 15 134 70 224 186 32 41
41 48 51 37 18 -18 53 -16 119 7 32 11 58 20 59 20 1 0 1 -8 -1 -17 -10 -66
64 -71 184 -13 46 22 81 35 78 28 -2 -7 -13 -39 -23 -71 -27 -86 -8 -92 51
-16 51 65 124 139 137 139 4 0 8 -29 8 -65 0 -61 2 -66 26 -77 20 -9 32 -9 57
2 18 7 51 12 75 12 23 -1 57 5 74 14 19 10 33 12 37 6 16 -27 73 -14 142 31
27 17 49 37 49 44 0 19 -18 16 -50 -7 -16 -11 -45 -27 -65 -36 l-36 -15 21 40
c11 22 20 42 20 45 0 10 -98 16 -122 7 -15 -5 -43 -26 -64 -46 -43 -42 -90
-69 -110 -61 -9 3 -13 22 -13 61 1 57 -12 85 -38 85 -19 0 -69 -35 -106 -75
-28 -29 -28 -29 -21 -5 12 46 122 287 165 364 24 42 60 97 81 122 21 25 35 51
31 59 -8 22 -21 18 -51 -14 -15 -15 -44 -46 -65 -68 -20 -22 -34 -43 -30 -46
3 -4 -18 -55 -47 -114 -30 -60 -66 -139 -81 -178 l-27 -70 -83 -41 c-46 -23
-101 -44 -122 -48 -36 -7 -38 -6 -28 12 19 35 72 74 85 63 19 -16 38 7 25 31
-13 23 -49 23 -91 -2 -48 -28 -168 -71 -189 -68 -18 3 -18 4 0 43 18 42 18 65
-2 65 -20 -1 -50 -31 -99 -101 -50 -70 -134 -161 -182 -197 -35 -26 -72 -28
-84 -4 -22 43 23 254 87 409 31 75 147 310 165 335 12 16 30 19 181 33 33 3
74 8 90 10 17 2 73 7 125 10 52 4 115 8 140 10 25 2 117 6 205 10 153 7 192
15 178 37 -7 13 -365 4 -626 -17 -48 -3 -96 -8 -105 -10 -9 -1 -47 -6 -85 -9
l-67 -7 31 52 c17 30 60 94 95 145 54 78 62 93 51 108 -12 16 -14 16 -40 -4z
m773 -915 c0 -8 -79 -55 -92 -55 -21 1 51 60 72 60 11 0 20 -2 20 -5z"/>
<path d="M783 874 c-6 -17 14 -36 32 -31 6 2 11 13 13 25 3 17 -2 22 -18 22
-11 0 -23 -7 -27 -16z"/>
</g>
</svg>
