<svg id="Layer_1" enable-background="new 0 0 512 512" height="512" viewBox="0 0 512 512" width="512" xmlns="http://www.w3.org/2000/svg"><g><g><path d="m503.98 256.001c0 137.239-111.14 248.499-248.24 248.499-5.25 0-10.46-.16-15.62-.48-129.82-8.07-232.62-116.029-232.62-248.019 0-130.91 101.12-238.169 229.43-247.799 6.21-.46 12.48-.7 18.81-.7 35.32 0 68.92 7.38 99.34 20.7l128.62 129.28c13.05 30.199 20.28 63.519 20.28 98.519z" fill="#f4f1e1"/><path d="m503.98 256.001c0 137.239-111.14 248.499-248.24 248.499-5.25 0-10.46-.16-15.62-.48 130.41-7.45 233.86-115.559 233.86-247.829 0-133.349-105.14-242.139-237.05-247.989 6.21-.46 12.48-.7 18.81-.7 35.32 0 68.92 7.38 99.34 20.7l128.62 129.28c13.05 30.199 20.28 63.519 20.28 98.519z" fill="#f4e5cb"/><path d="m448.14 256.001c0 106.369-86.14 192.599-192.4 192.599-1.52 0-3.04-.02-4.55-.05-104.16-2.42-187.86-87.7-187.86-192.549 0-102.14 79.41-185.699 179.79-192.199 4.17-.27 8.38-.41 12.62-.41 20.73 0 40.69 3.28 59.4 9.36l123.92 124.589c5.9 18.49 9.08 38.2 9.08 58.66z" fill="#ff7878"/><path d="m448.14 256.001c0 106.369-86.14 192.599-192.4 192.599-1.52 0-3.04-.02-4.55-.05 93.63-13.77 165.49-94.43 165.49-191.869 0-100.23-76.03-182.699-173.56-192.879 4.17-.27 8.38-.41 12.62-.41 20.73 0 40.69 3.28 59.4 9.36l123.92 124.589c5.9 18.49 9.08 38.2 9.08 58.66z" fill="#f4536f"/><path d="m386.64 256.001c0 72.37-58.61 131.039-130.9 131.039-6.45 0-12.78-.47-18.98-1.37-63.3-9.2-111.92-63.75-111.92-129.669 0-65.34 47.76-119.509 110.25-129.419 6.73-1.07 13.62-1.62 20.65-1.62 17.61 0 34.4 3.48 49.74 9.79l71.58 71.94c6.18 15.219 9.58 31.869 9.58 49.309z" fill="#f4f1e1"/><path d="m386.64 256.001c0 72.37-58.61 131.039-130.9 131.039-6.45 0-12.78-.47-18.98-1.37 66.72-5.46 119.17-61.35 119.17-129.479 0-68.7-53.33-124.949-120.84-129.609 6.73-1.07 13.62-1.62 20.65-1.62 17.61 0 34.4 3.48 49.74 9.79l71.58 71.94c6.18 15.219 9.58 31.869 9.58 49.309z" fill="#f4e5cb"/><path d="m324.56 256.001c0 38.05-30.81 68.89-68.82 68.89-3.68 0-7.28-.29-10.8-.85-32.88-5.18-58.02-33.67-58.02-68.04 0-34.76 25.72-63.52 59.15-68.22 3.16-.45 6.39-.68 9.67-.68 16.12 0 30.95 5.56 42.69 14.85l14.26 15.36c7.49 11.03 11.87 24.35 11.87 38.69z" fill="#ff7878"/><path d="m324.56 256.001c0 38.05-30.81 68.89-68.82 68.89-3.68 0-7.28-.29-10.8-.85 28.13-9.96 48.28-36.8 48.28-68.34 0-31.12-19.61-57.66-47.15-67.92 3.16-.45 6.39-.68 9.67-.68 16.12 0 30.95 5.56 42.69 14.85l14.26 15.36c7.49 11.03 11.87 24.35 11.87 38.69z" fill="#f4536f"/><g fill="#ffe36c"><path d="m504.5 127.452s-70.34 127.149-155.24 65.1l8.96-14.53 17.62-28.57 55.69-33.01c26.76 12.83 59.01 11.99 69.49 11.3 2.23-.15 3.48-.29 3.48-.29z"/><path d="m384.751 7.581s-130.806 72.522-62.143 159.194l44.146-17.507 31.468-63.863c-18.479-33.126-13.471-77.824-13.471-77.824z"/></g><path d="m504.5 127.452s-70.34 127.149-155.24 65.1l8.96-14.53c68.66 17.05 142.8-50.28 142.8-50.28 2.23-.15 3.48-.29 3.48-.29z" fill="#ffc46e"/><path d="m459.62 83.682s-94.71 100.669-203.88 175.889c.63-.91 1.26-1.83 1.9-2.74 74.92-108.13 173.8-201.359 173.8-201.359s3.5 8.43 11.43 16.61c4.25 4.39 9.79 8.71 16.75 11.6z" fill="#8389aa"/><path d="m459.62 83.682s-94.71 100.669-203.88 175.889c.63-.91 1.26-1.83 1.9-2.74l185.23-184.749c4.25 4.39 9.79 8.71 16.75 11.6z" fill="#646d91"/></g><g><path d="m393.912 453.378c-40.601 28.538-88.381 43.622-138.174 43.622-64.303 0-124.756-25.067-170.225-70.584-45.471-45.52-70.513-106.041-70.513-170.416 0-55.384 19.229-109.467 54.144-152.287 2.618-3.21 2.138-7.935-1.073-10.552-3.209-2.618-7.935-2.137-10.552 1.073-37.092 45.489-57.519 102.939-57.519 161.766 0 68.379 26.601 132.665 74.901 181.017 48.303 48.353 112.526 74.983 180.837 74.983 52.896 0 103.659-16.027 146.799-46.351 3.389-2.382 4.205-7.06 1.823-10.448-2.38-3.388-7.057-4.207-10.448-1.823z"/><path d="m511.063 131.087c1.358-2.455 1.232-5.462-.325-7.795s-4.281-3.603-7.074-3.289c-.355.04-33.223 3.542-62.025-7.4 14.649-14.471 23.167-23.483 23.448-23.781 1.687-1.794 2.387-4.302 1.871-6.71-.516-2.407-2.181-4.409-4.454-5.354-16.673-6.934-24.073-24.017-24.136-24.163-.944-2.276-2.947-3.943-5.357-4.459-2.412-.515-4.921.187-6.714 1.877-.146.137-9.74 9.203-25.001 24.698-12.931-29.631-9.134-65.908-9.091-66.294.313-2.788-.958-5.519-3.293-7.075-2.336-1.557-5.345-1.681-7.797-.319-.604.336-12.458 6.956-27.226 18.531-31.115-12.967-64.107-19.554-98.151-19.554-65.016 0-126.981 24.446-174.479 68.835-3.026 2.828-3.187 7.574-.358 10.601 1.477 1.58 3.477 2.379 5.481 2.379 1.834 0 3.673-.669 5.119-2.021 44.71-41.783 103.037-64.794 164.237-64.794 29.42 0 58.002 5.213 85.141 15.504-12.076 10.929-21.797 22.074-29.122 33.364-18.129-5.289-36.944-7.976-56.02-7.976-110.226.001-199.903 89.768-199.903 200.108s89.677 200.107 199.904 200.107 199.905-89.767 199.905-200.107c0-18.809-2.607-37.372-7.736-55.273 12.844-8.279 24.116-18.723 33.447-28.995 10.04 26.884 15.123 55.174 15.123 84.269 0 34.214-7.013 67.267-20.843 98.242-13.362 29.928-32.385 56.435-56.537 78.782-3.04 2.813-3.225 7.559-.411 10.599 1.479 1.598 3.489 2.406 5.507 2.406 1.822 0 3.649-.66 5.092-1.995 25.649-23.733 45.853-51.886 60.047-83.677 14.694-32.912 22.146-68.022 22.146-104.357 0-33.722-6.448-66.428-19.139-97.3 11.41-14.567 18.073-26.437 18.724-27.614zm-199.607-28.738c7.438-37.315 45.5-67.431 65.154-80.771-.022 16 2.033 42.152 13.522 64.586-5.569 5.772-11.612 12.121-18.025 18.988-2.827 3.027-2.665 7.773.362 10.601 3.029 2.829 7.773 2.664 10.601-.362 20.771-22.24 37.667-39.065 46.601-47.79 3.688 5.516 9.468 12.483 17.704 17.981-20.209 20.702-83.209 83.459-158.063 140.37 21.089-27.824 44.973-56.64 71.355-86.078 2.765-3.085 2.505-7.826-.579-10.591-3.086-2.764-7.827-2.504-10.591.579-8.369 9.339-16.476 18.613-24.341 27.821-12.822-17.997-17.436-36.588-13.7-55.334zm-61.018 162.527c1.45 1.449 3.37 2.194 5.303 2.194 1.478 0 2.963-.436 4.253-1.324 17.3-11.919 34.266-24.506 50.575-37.25 4.259 8.489 6.491 17.858 6.491 27.503 0 33.853-27.509 61.394-61.321 61.394s-61.322-27.54-61.322-61.393 27.509-61.394 61.321-61.394c11.437 0 22.327 3.075 31.894 8.943-13.772 17.64-26.495 34.93-38.075 51.772-2.048 2.981-1.678 6.999.881 9.555zm5.3 176.231c-101.957 0-184.904-83.039-184.904-185.107s82.947-185.107 184.904-185.107c16.475 0 32.733 2.166 48.459 6.43-3.477 7.308-5.966 14.663-7.442 22.048-1.608 8.043-1.981 16.025-1.142 23.923-12.869-3.875-26.229-5.833-39.874-5.833-76.315 0-138.402 62.148-138.402 138.54 0 4.143 3.357 7.5 7.5 7.5s7.5-3.357 7.5-7.5c0-68.12 55.358-123.54 123.402-123.54 15.059 0 29.721 2.676 43.64 7.95 3.318 9.86 8.595 19.558 15.819 29.048-6.249 7.475-12.316 14.897-18.212 22.264-12.279-7.939-26.392-12.115-41.247-12.115-42.084 0-76.321 34.27-76.321 76.394s34.237 76.394 76.321 76.394 76.321-34.272 76.321-76.396c0-13.046-3.285-25.692-9.531-36.969 8.106-6.494 16.022-12.996 23.702-19.439 8.237 5.843 16.625 10.233 25.133 13.154 5.159 13.807 7.777 28.339 7.777 43.254 0 68.12-55.358 123.54-123.402 123.54-56.556 0-105.748-38.276-119.626-93.082-1.017-4.017-5.1-6.445-9.111-5.43-4.016 1.017-6.446 5.097-5.43 9.111 15.565 61.47 70.737 104.4 134.167 104.4 76.315 0 138.402-62.148 138.402-138.54 0-13.466-1.905-26.659-5.67-39.378 2.858.321 5.725.499 8.604.499 5.745 0 11.53-.64 17.343-1.922 6.953-1.534 13.634-3.926 20.01-6.941 4.122 15.504 6.216 31.522 6.216 47.742-.001 102.069-82.949 185.108-184.906 185.108zm217.205-282.57c-14.007 16.05-36.099 36.368-61.797 42.022-17.957 3.952-35.78.226-53.049-11.033 28.617-24.531 53.407-47.655 71.901-65.547 21.346 9.743 45.223 11.615 60.278 11.615h.268c-4.256 6.305-10.23 14.499-17.601 22.943z"/></g></g></svg>