<svg id="Layer_1" enable-background="new 0 0 512 512" height="512" viewBox="0 0 512 512" width="512" xmlns="http://www.w3.org/2000/svg"><g><g><path d="m387.315 447.071-26.55.01-236.109.04c-223.569-134.52-58.47-432.37-58.47-432.37s170.559-14.76 349.989-2.3c9.85.68 19.73 1.45 29.61 2.3 0 0 165.099 297.8-58.47 432.32z" fill="#99f8ff"/><path d="m387.315 447.071-26.55.01c202.069-128.93 70.62-404.45 55.41-434.63 9.85.68 19.73 1.45 29.61 2.3 0 0 165.099 297.8-58.47 432.32z" fill="#92d3f7"/><path d="m443.465 306.631c-12.63 37.06-35.82 66.75-70.72 90.44h-28.11l-205.419.04c-34.56-23.46-57.63-52.8-70.34-89.37-11.65-33.5-14.4-73.1-8.17-117.69 4.47-32.04 12.97-62.11 21.66-86.87 15.93-5.76 41.85-12.22 78.11-12.22 65.47 0 90.48 29.63 144.999 29.63 42.96 0 51.65-11.63 91.46-20.32 8.38-1.83 18.16-3.54 29.92-4.97 9.37 25.43 19 57.57 24.08 92.39 6.58 45.07 4.07 85.079-7.47 118.94z" fill="#92d3f7"/><path d="m443.465 306.631c-12.63 37.06-35.82 66.75-70.72 90.44h-28.11c113.25-86.28 84.06-217.46 52.3-296.8 8.38-1.83 18.16-3.54 29.92-4.97 9.37 25.43 19 57.57 24.08 92.39 6.58 45.07 4.07 85.079-7.47 118.94z" fill="#80a8e8"/><path d="m434.727 448.452s-89.37-2.571-178.74-2.571-178.74 2.571-178.74 2.571-2.648 26.464 0 53.427c0 0 89.37 2.571 178.74 2.571s178.74-2.571 178.74-2.571c2.649-26.963 0-53.427 0-53.427z" fill="#8389aa"/><g><path d="m280.566 193.001s-19.46 30.33-51.19 35.57c-3 .5-6.11.77-9.33.77-37.22 0-60.53-36.34-60.53-36.34s23.31-36.33 60.53-36.33c3.22 0 6.33.27 9.33.77 31.73 5.24 51.19 35.56 51.19 35.56z" fill="#ff7878"/><path d="m280.566 193.001s-19.46 30.33-51.19 35.57c13.93-12.75 17.19-35.57 17.19-35.57s-3.26-22.82-17.19-35.56c31.73 5.24 51.19 35.56 51.19 35.56z" fill="#e84680"/><path d="m123.092 161.879c2.209 8.476 4.424 19.8 4.424 31.125s-2.215 22.649-4.424 31.125c22.892-10.047 36.422-31.125 36.422-31.125s-13.53-21.078-36.422-31.125z" fill="#ff7878"/></g><g><path d="m333.5 311.832s-23.317-36.335-60.528-36.335-60.528 36.335-60.528 36.335 23.317 36.335 60.528 36.335 60.528-36.335 60.528-36.335z" fill="#ff7878"/><path d="m369.922 280.706c-2.209 8.476-4.424 19.8-4.424 31.125s2.216 22.649 4.424 31.125c-22.892-10.046-36.422-31.124-36.422-31.124s13.53-21.078 36.422-31.126z" fill="#e84680"/></g></g><g><path d="m507.461 176.957c-.622-4.097-4.449-6.907-8.541-6.29-4.095.622-6.911 4.446-6.289 8.542 7.93 52.231 5.055 99.326-8.545 139.977-16.782 50.159-50.172 90.737-99.238 120.641-16.808-.335-36.806-.68-58.346-.943-.031-.001-.063-.001-.094-.001-4.1 0-7.447 3.298-7.497 7.409-.051 4.143 3.266 7.542 7.407 7.592 46.743.57 86.206 1.529 101.458 1.928.516 8.199 1.106 23.068.041 38.8-22.424.585-97.538 2.387-171.825 2.387s-149.401-1.802-171.825-2.387c-1.062-15.709-.472-30.593.043-38.8 22.477-.586 97.536-2.386 171.782-2.386 9.65 0 19.795.031 30.155.092h.045c4.121 0 7.475-3.329 7.499-7.457.024-4.142-3.314-7.52-7.456-7.545-10.389-.061-20.564-.092-30.243-.092-47.199 0-94.721.726-128.924 1.406-65.579-39.995-102.78-98.646-110.547-174.37-6.869-66.966 10.785-134.514 26.806-179.39 1.393-3.901-.641-8.193-4.542-9.586-3.899-1.394-8.192.642-9.585 4.542-16.541 46.335-34.756 116.21-27.6 185.966 7.511 73.229 40.848 131.452 99.171 173.407-14.653.342-23.463.592-23.74.6-3.769.108-6.871 2.998-7.247 6.751-.111 1.111-2.691 27.521-.001 54.913.369 3.758 3.474 6.656 7.248 6.764.895.025 90.504 2.573 178.962 2.573 88.459 0 178.067-2.548 178.962-2.573 3.775-.108 6.879-3.006 7.248-6.764 2.69-27.391.11-53.801-.001-54.913-.376-3.752-3.479-6.642-7.247-6.751-.204-.006-9.068-.258-23.817-.603 42.159-30.351 71.441-69.428 87.173-116.449 14.362-42.93 17.442-92.384 9.15-146.99z"/><path d="m46.293 57.319c3.81 1.628 8.216-.141 9.845-3.949 6.484-15.166 11.998-26.19 14.744-31.477 28.287-2.201 199.69-14.345 370.208-.02 6.756 13.025 30.423 61.146 44.657 121.832.811 3.457 3.892 5.79 7.295 5.79.567 0 1.144-.065 1.72-.2 4.032-.946 6.535-4.982 5.589-9.016-17.123-72.998-46.74-126.91-47.992-129.17-1.21-2.183-3.427-3.62-5.913-3.835-188.28-16.287-379.003-.165-380.908 0-2.486.215-4.703 1.653-5.913 3.836-.31.559-7.696 13.943-17.281 36.362-1.627 3.811.141 8.218 3.949 9.847z"/><path d="m66.41 300.682c-3.912 1.36-5.982 5.635-4.621 9.548 13.296 38.246 37.246 68.708 73.219 93.126 1.243.845 2.711 1.295 4.213 1.295l233.537-.045c1.502 0 2.969-.451 4.211-1.294 36.324-24.657 60.402-55.48 73.608-94.234 11.926-34.997 14.548-76.196 7.793-122.454-4.415-30.238-12.646-61.833-24.464-93.906-1.202-3.264-4.484-5.278-7.945-4.853-33.114 4.035-50.615 10.067-66.056 15.391-15.949 5.499-28.546 9.842-54.419 9.842-24.746 0-43.337-6.501-63.02-13.382-22.851-7.99-46.48-16.252-81.983-16.252-37.732 0-64.695 6.89-80.67 12.67-2.117.767-3.779 2.444-4.525 4.569-10.672 30.402-18.08 60.118-22.014 88.323-4.263 30.549-4.402 59.109-.415 84.888.634 4.095 4.47 6.895 8.559 6.266 4.094-.634 6.899-4.466 6.266-8.559-3.765-24.332-3.614-51.423.446-80.522 3.652-26.173 10.42-53.748 20.129-82.025 15.156-5.089 39.209-10.609 72.224-10.609 32.956 0 55.363 7.835 77.032 15.411 20.919 7.314 40.678 14.223 67.971 14.223 28.387 0 42.717-4.94 59.308-10.661 13.788-4.753 29.3-10.101 57.07-13.916 10.371 29.161 17.655 57.821 21.663 85.27 6.407 43.881 4.002 82.723-7.149 115.446-11.889 34.884-33.473 62.829-65.949 85.366l-228.885.045c-32.157-22.317-53.622-49.927-65.588-84.346-1.359-3.912-5.631-5.982-9.546-4.621z"/><path d="m118.227 229.859c1.383 1.18 3.115 1.793 4.867 1.793 1.02 0 2.045-.208 3.013-.632 15.43-6.773 26.855-17.976 33.4-25.653 9.93 11.682 31.109 31.496 60.539 31.496 40.84 0 65.799-38.164 66.842-39.788 1.583-2.469 1.583-5.633 0-8.102-1.043-1.624-26.002-39.788-66.842-39.788-29.43 0-50.609 19.814-60.539 31.496-6.545-7.677-17.97-18.881-33.4-25.653-2.631-1.156-5.694-.704-7.88 1.161-2.188 1.865-3.116 4.817-2.392 7.599 1.908 7.32 4.182 18.334 4.182 29.236 0 10.901-2.273 21.916-4.182 29.236-.724 2.782.204 5.734 2.392 7.599zm101.819-65.674c25.549 0 44.265 20.064 51.235 28.851-6.945 8.801-25.566 28.824-51.235 28.824-25.532 0-44.239-20.035-51.224-28.838 6.986-8.801 25.692-28.837 51.224-28.837zm-86.244 12.718c7.61 5.734 13.243 12.113 16.424 16.132-3.173 4.023-8.79 10.395-16.427 16.131.811-5.635 1.219-11.029 1.219-16.143-.001-5.107-.408-10.494-1.216-16.12z"/><path d="m206.137 307.811c-1.583 2.469-1.583 5.633 0 8.102 1.043 1.624 26.002 39.788 66.842 39.788 29.43 0 50.609-19.814 60.539-31.496 6.545 7.677 17.97 18.881 33.4 25.653.968.425 1.993.632 3.013.632 1.752 0 3.484-.614 4.867-1.793 2.188-1.865 3.116-4.817 2.392-7.599-1.908-7.321-4.183-18.337-4.183-29.236s2.274-21.914 4.183-29.236c.725-2.783-.204-5.734-2.392-7.599-2.189-1.867-5.25-2.315-7.88-1.161-15.43 6.773-26.856 17.976-33.4 25.653-9.93-11.682-31.109-31.496-60.539-31.496-40.841 0-65.799 38.164-66.842 39.788zm153.089-12.092c-.812 5.636-1.22 11.03-1.22 16.143 0 5.106.407 10.493 1.216 16.12-7.61-5.733-13.242-12.112-16.423-16.131 3.172-4.023 8.789-10.395 16.427-16.132zm-35.024 16.143c-6.986 8.803-25.692 28.838-51.224 28.838-25.549 0-44.265-20.064-51.235-28.852 6.945-8.801 25.566-28.824 51.235-28.824 25.532 0 44.239 20.036 51.224 28.838z"/><path d="m179.441 260.314c0 4.143 3.359 7.502 7.503 7.502s7.503-3.359 7.503-7.502-3.359-7.502-7.503-7.502-7.503 3.359-7.503 7.502z"/><path d="m106.959 275.526c0 4.143 3.359 7.502 7.503 7.502s7.503-3.359 7.503-7.502-3.359-7.502-7.503-7.502-7.503 3.358-7.503 7.502z"/><path d="m157.92 342.992c0 4.143 3.359 7.502 7.503 7.502s7.503-3.359 7.503-7.502-3.359-7.502-7.503-7.502-7.503 3.359-7.503 7.502z"/><path d="m326.005 242.182c0 4.143 3.359 7.502 7.503 7.502s7.503-3.359 7.503-7.502-3.359-7.502-7.503-7.502-7.503 3.359-7.503 7.502z"/><path d="m339.838 190.188c4.144 0 7.503-3.359 7.503-7.502s-3.359-7.502-7.503-7.502-7.503 3.359-7.503 7.502c0 4.144 3.359 7.502 7.503 7.502z"/><path d="m404.389 200.53c4.144 0 7.503-3.359 7.503-7.502s-3.359-7.502-7.503-7.502-7.503 3.359-7.503 7.502c.001 4.143 3.36 7.502 7.503 7.502z"/></g></g></svg>